<svg width="42" height="42" viewBox="0 0 42 42" fill="none" xmlns="http://www.w3.org/2000/svg">
<path d="M5.24997 0H27.5532L39.3749 11.7758V39.375C39.3749 40.8253 38.199 42 36.7499 42H5.24997C3.80094 42 2.625 40.8253 2.625 39.375V2.62497C2.625 1.17471 3.80107 0 5.24997 0Z" fill="#E2574C"/>
<path d="M39.3369 11.8125H30.1875C28.7384 11.8125 27.5625 10.6366 27.5625 9.18751V0.0262451L39.3369 11.8125Z" fill="#B53629"/>
<path d="M29.5282 19.9014C29.9679 19.9014 30.1832 19.5182 30.1832 19.1468C30.1832 18.7622 29.9587 18.3907 29.5282 18.3907H27.0239C26.5344 18.3907 26.2614 18.7963 26.2614 19.2439V25.3981C26.2614 25.9468 26.5737 26.2513 26.9964 26.2513C27.4164 26.2513 27.7301 25.9468 27.7301 25.3981V23.709H29.2448C29.7146 23.709 29.9496 23.3244 29.9496 22.9425C29.9496 22.5685 29.7146 22.197 29.2448 22.197H27.7301V19.9014H29.5282ZM21.0639 18.3907H19.2316C18.7341 18.3907 18.381 18.732 18.381 19.2386V25.4034C18.381 26.0321 18.889 26.229 19.2525 26.229H21.1754C23.4512 26.229 24.954 24.7315 24.954 22.4201C24.9528 19.9763 23.538 18.3907 21.0639 18.3907ZM21.1519 24.7092H20.0349V19.9107H21.0416C22.5655 19.9107 23.2282 20.9332 23.2282 22.344C23.2282 23.6645 22.5771 24.7092 21.1519 24.7092ZM14.4397 18.3907H12.6245C12.1113 18.3907 11.8252 18.7293 11.8252 19.2439V25.3981C11.8252 25.9468 12.1533 26.2513 12.5943 26.2513C13.0352 26.2513 13.3633 25.9468 13.3633 25.3981V23.6013H14.5012C15.9056 23.6013 17.0645 22.6064 17.0645 21.0065C17.0647 19.4408 15.9465 18.3907 14.4397 18.3907ZM14.4096 22.1577H13.3635V19.8358H14.4096C15.0553 19.8358 15.4661 20.3398 15.4661 20.9974C15.4648 21.6537 15.0553 22.1577 14.4096 22.1577Z" fill="white"/>
</svg>
