<svg width="233" height="37" viewBox="0 0 233 37" fill="none" xmlns="http://www.w3.org/2000/svg">
<path d="M43.927 4.70909L40.849 0L40.6912 0.263283L40.84 0.0118187H2.79831L0.0514698 4.71124L0 4.80043L0.0514698 4.88963L18.6617 37H24.4944L24.6063 36.8195L34.1693 20.5966L31.1047 16.2003L25.309 15.8865L21.6357 21.6949L14.3003 9.58368H30.1615L32.6588 14.1294H37.9959L43.927 4.70909ZM3.01201 0.368605H40.2112L35.2658 9.16671H30.7657L32.9218 4.53285H0.580697L3.01201 0.368605ZM24.4944 26.3986L24.4877 26.4137L24.2762 26.0623L24.265 26.0451L24.4944 26.3986ZM24.4787 27.1143L24.7115 26.7404L24.7305 26.7694L25.5282 25.4465L25.5708 25.3799L25.5943 25.3401L31.0018 16.7053L33.7285 20.617L24.5034 36.2628L9.39855 9.58368H13.874L24.4787 27.1143ZM37.2887 13.7737H32.8748L30.6102 9.5826H35.0857" fill="#355FAA"/>
<path d="M61.7483 23.1317C61.7483 25.7001 59.6661 27.2787 55.7881 27.2787H48.2256V12.5432H55.3707C58.9209 12.5432 61.0255 13.9112 61.0255 16.3539C61.0396 17.04 60.841 17.7145 60.4549 18.2919C60.0688 18.8692 59.5126 19.3232 58.8572 19.5961C59.6957 19.7636 60.4456 20.2102 60.9745 20.8571C61.5035 21.504 61.7776 22.3096 61.7483 23.1317ZM51.7534 18.6483H55.0619C56.5959 18.6483 57.4115 18.0368 57.4115 16.859C57.4115 15.7016 56.6004 15.0697 55.0619 15.0697H51.7534V18.6483ZM58.1511 22.8587C58.1511 21.6175 57.2963 21.0318 55.6516 21.0318H51.7512V24.7576H55.6516C57.2997 24.7533 58.15 24.1419 58.15 22.8577L58.1511 22.8587Z" fill="#3C3C3B"/>
<path d="M64.5488 12.5432H68.0733V27.2787H64.5488V12.5432Z" fill="#3C3C3B"/>
<path d="M77.8275 21.3413H75.3727V27.2777H71.8459V12.5432H75.3749V18.501H77.917L81.9505 12.5432H85.6976L80.6795 19.6584L85.8532 27.2787H81.8196L77.8275 21.3413Z" fill="#3C3C3B"/>
<path d="M97.5944 24.117H90.4705L89.1122 27.2743H85.4736L92.3122 12.5388H95.8199L102.68 27.2743H98.9538L97.5944 24.117ZM96.4755 21.5271L94.042 15.8853L91.6096 21.5271H96.4755Z" fill="#3C3C3B"/>
<path d="M118.784 12.5432V27.2787H115.234V21.2371H108.263V27.2777H104.713V12.5432H108.263V18.3538H115.234V12.5432H118.784Z" fill="#3C3C3B"/>
<path d="M142.667 12.5443L136.136 24.2063C134.865 26.4803 133.047 27.6162 130.989 27.6162C130.13 27.6063 129.281 27.4347 128.49 27.1111L129.345 24.5222C129.839 24.6853 130.356 24.7772 130.879 24.7952C131.323 24.7931 131.758 24.6742 132.136 24.4514C132.515 24.2286 132.822 23.9104 133.026 23.5314L133.158 23.3627L127.105 12.5421H130.897L134.973 20.4579L139.181 12.5421H142.667V12.5443Z" fill="#3C3C3B"/>
<path d="M150.291 21.3413H147.836V27.2777H144.307V12.5432H147.836V18.501H150.378L154.411 12.5432H158.159L153.14 19.6584L158.314 27.2787H154.281L150.291 21.3413Z" fill="#3C3C3B"/>
<path d="M173.278 17.8907C173.278 21.1737 170.712 23.2166 166.615 23.2166H163.526V27.2787H159.976V12.5432H166.617C170.715 12.5432 173.278 14.5851 173.278 17.8907ZM169.683 17.8907C169.683 16.2701 168.586 15.3223 166.417 15.3223H163.525V20.4376H166.42C168.589 20.4365 169.684 19.4887 169.684 17.8907H169.683Z" fill="#3C3C3B"/>
<path d="M185.243 24.117H178.12L176.762 27.2743H173.123L179.962 12.5388H183.47L190.328 27.2743H186.602L185.243 24.117ZM184.124 21.5271L181.691 15.8853L179.257 21.5271H184.124Z" fill="#3C3C3B"/>
<path d="M190.3 9.78565C190.296 9.59192 190.333 9.39933 190.408 9.21972C190.484 9.04012 190.597 8.87728 190.741 8.74121C190.885 8.60515 191.056 8.49873 191.244 8.42848C191.432 8.35824 191.633 8.32565 191.834 8.33273C192.04 8.32199 192.245 8.35156 192.438 8.41962C192.631 8.48768 192.808 8.5928 192.957 8.72857C193.106 8.86434 193.225 9.02791 193.306 9.20929C193.388 9.39066 193.429 9.58605 193.429 9.7835C193.429 9.98096 193.388 10.1763 193.306 10.3577C193.225 10.5391 193.106 10.7027 192.957 10.8384C192.808 10.9742 192.631 11.0793 192.438 11.1474C192.245 11.2154 192.04 11.245 191.834 11.2343C191.633 11.2413 191.433 11.2089 191.245 11.1389C191.057 11.0689 190.886 10.9629 190.743 10.8273C190.599 10.6917 190.486 10.5293 190.41 10.3502C190.334 10.1711 190.296 9.97903 190.3 9.78565ZM192.272 12.5432H195.822V27.2787H192.272V12.5432ZM194.75 9.78565C194.748 9.49526 194.836 9.2108 195.002 8.96846C195.169 8.72612 195.407 8.53686 195.686 8.42475C195.965 8.31264 196.272 8.28275 196.569 8.33888C196.865 8.39502 197.138 8.53463 197.352 8.73997C197.566 8.94532 197.711 9.2071 197.769 9.49202C197.828 9.77695 197.797 10.0721 197.68 10.34C197.563 10.6079 197.366 10.8364 197.114 10.9964C196.861 11.1564 196.565 11.2407 196.263 11.2386C196.063 11.243 195.865 11.2084 195.679 11.1369C195.494 11.0654 195.325 10.9585 195.184 10.8227C195.043 10.6868 194.932 10.5249 194.858 10.3466C194.784 10.1683 194.748 9.9775 194.754 9.78565H194.75Z" fill="#3C3C3B"/>
<path d="M213.619 12.5432V27.2787H210.068V21.2371H203.098V27.2777H199.548V12.5432H203.098V18.3538H210.068V12.5432H213.619Z" fill="#3C3C3B"/>
<path d="M227.838 24.117H220.714L219.356 27.2743H215.718L222.556 12.5388H226.062L232.921 27.2743H229.196L227.838 24.117ZM226.719 21.5271L224.286 15.8853L221.853 21.5271H226.719Z" fill="#3C3C3B"/>
</svg>
