<svg width="106" height="74" viewBox="0 0 106 74" fill="none" xmlns="http://www.w3.org/2000/svg">
<path d="M80.739 6.31424L76.7805 0L76.5765 0.351122L76.7666 0.0159013H27.8307L24.2983 6.30961L24.2321 6.42753L24.2983 6.54745L48.2343 49.5547H55.739L55.8775 49.3122L68.186 27.5929L64.2435 21.6967L56.7891 21.2774L52.0642 29.0584L42.6349 12.8431H63.0397L66.2522 18.9301H73.1196L80.739 6.31424ZM28.1077 0.498858H75.9438L69.5984 12.288H63.8129L66.5881 6.08303H24.9833L28.1077 0.498858ZM55.7437 35.3673V35.3879L55.4714 34.9142L55.4575 34.8917L55.7437 35.3673ZM55.7258 36.326L56.0252 35.8251L56.0504 35.8635L57.0773 34.0907L57.1316 34.0019L57.1587 33.9496L64.115 22.387L67.6262 27.6261L55.7523 48.5887L36.3259 12.859H42.0797L55.7258 36.326ZM72.2007 18.4591H66.5331L63.6221 12.8412H69.3858" fill="white"/>
<path d="M7.76047 70.7699C7.76047 72.3049 6.56798 73.2477 4.33935 73.2477H0V64.4431H4.10151C6.142 64.4431 7.34774 65.2613 7.34774 66.7102C7.35595 67.1203 7.24198 67.5236 7.02031 67.8688C6.79864 68.214 6.47929 68.4855 6.10291 68.6486C6.58399 68.7519 7.0135 69.0209 7.31645 69.4086C7.61941 69.7964 7.77656 70.2782 7.76047 70.7699ZM2.02724 68.0908H3.92462C4.8064 68.0908 5.27148 67.7258 5.27148 67.0229C5.27148 66.32 4.80773 65.9529 3.92462 65.9529H2.02724V68.0908ZM5.69746 70.6083C5.69746 69.8643 5.20788 69.5132 4.26448 69.5132H2.02724V71.7398H4.26515C5.20854 71.7398 5.69812 71.3748 5.69812 70.609L5.69746 70.6083Z" fill="white"/>
<path d="M9.36963 64.4431H11.3942V73.2483H9.36963V64.4431Z" fill="white"/>
<path d="M16.9896 69.7007H15.5884V73.249H13.5479V64.4431H15.5884V68.014H17.0393L19.354 64.455H21.5032L18.624 68.695L21.5913 73.2497H19.2792L16.9896 69.7007Z" fill="white"/>
<path d="M28.3323 71.3598H24.2513L23.4715 73.2486H21.3834L25.308 64.4434H27.3213L31.2572 73.2486H29.1193L28.3323 71.3598ZM27.691 69.8135L26.2944 66.4421L24.8979 69.8135H27.691Z" fill="white"/>
<path d="M40.493 64.4431V73.2483H38.4525V69.6371H34.4557V73.2483H32.4152V64.4431H34.4557V67.9139H38.4552V64.4431H40.493Z" fill="white"/>
<path d="M54.1975 64.4431L50.4497 71.4146C49.721 72.7747 48.6769 73.455 47.5023 73.455C47.0095 73.4497 46.5225 73.3473 46.0693 73.1536L46.5589 71.6073C46.8427 71.7043 47.139 71.7595 47.4387 71.771C47.6937 71.7698 47.9435 71.6987 48.1609 71.5656C48.3784 71.4324 48.5552 71.2423 48.6723 71.0157L48.7471 70.9157L45.2763 64.4497H47.4526L49.7919 69.1793L52.2067 64.4497L54.1975 64.4431Z" fill="white"/>
<path d="M58.574 69.7007H57.1641V73.249H55.1389V64.4431H57.1635V68.014H58.621L60.9291 64.4431H63.0782L60.2057 68.6943L63.1737 73.249H60.8589L58.574 69.7007Z" fill="white"/>
<path d="M71.7634 67.6377C71.7634 69.6013 70.2919 70.8117 67.9408 70.8117H66.1679V73.2397H64.1274V64.4431H67.9388C70.2886 64.4431 71.7634 65.6628 71.7634 67.6377ZM69.7023 67.6377C69.7023 66.6698 69.0723 66.1053 67.8275 66.1053H66.1679V69.1614H67.8275C69.0723 69.1608 69.7023 68.5943 69.7023 67.6377Z" fill="white"/>
<path d="M78.6309 71.3598H74.534L73.7543 73.2486H71.6661L75.5907 64.4434H77.602L81.5399 73.2486H79.402L78.6309 71.3598ZM77.9889 69.8135L76.5924 66.4421L75.1959 69.8135H77.9889Z" fill="white"/>
<path d="M81.532 62.7992C81.5295 62.6837 81.5506 62.5688 81.5941 62.4617C81.6376 62.3545 81.7026 62.2574 81.785 62.1764C81.8674 62.0953 81.9655 62.0319 82.0733 61.9901C82.1811 61.9483 82.2963 61.929 82.4118 61.9334C82.5297 61.9268 82.6477 61.9444 82.7586 61.9851C82.8695 62.0257 82.9709 62.0885 83.0567 62.1697C83.1425 62.2508 83.2108 62.3487 83.2575 62.4571C83.3042 62.5656 83.3283 62.6825 83.3283 62.8006C83.3283 62.9187 83.3042 63.0355 83.2575 63.144C83.2108 63.2524 83.1425 63.3503 83.0567 63.4314C82.9709 63.5126 82.8695 63.5754 82.7586 63.6161C82.6477 63.6567 82.5297 63.6743 82.4118 63.6678C82.296 63.6722 82.1806 63.6528 82.0726 63.6108C81.9647 63.5689 81.8664 63.5052 81.784 63.4238C81.7016 63.3425 81.6367 63.2451 81.5933 63.1376C81.55 63.0302 81.5291 62.915 81.532 62.7992ZM82.6655 64.4475H84.706V73.2528H82.6655V64.4475ZM84.0873 62.7992C84.086 62.6256 84.1363 62.4555 84.232 62.3105C84.3276 62.1656 84.4642 62.0524 84.6244 61.9854C84.7846 61.9183 84.9611 61.9004 85.1315 61.934C85.3019 61.9675 85.4584 62.051 85.5812 62.1738C85.704 62.2966 85.7875 62.4531 85.8211 62.6235C85.8546 62.7939 85.8367 62.9704 85.7697 63.1306C85.7026 63.2908 85.5894 63.4274 85.4445 63.523C85.2996 63.6187 85.1294 63.6691 84.9558 63.6678C84.8407 63.6712 84.7262 63.651 84.6192 63.6086C84.5122 63.5662 84.4149 63.5023 84.3334 63.421C84.2519 63.3397 84.1879 63.2426 84.1452 63.1357C84.1026 63.0288 84.0821 62.9143 84.0853 62.7992H84.0873Z" fill="white"/>
<path d="M94.913 64.4431V73.2483H92.8725V69.6371H88.8757V73.2483H86.8352V64.4431H88.8757V67.9139H92.8772V64.4431H94.913Z" fill="white"/>
<path d="M103.075 71.3598H98.994L98.2143 73.2486H96.1261L100.05 64.4434H102.062L106 73.2486H103.862L103.075 71.3598ZM102.434 69.8135L101.037 66.4421L99.6407 69.8135H102.434Z" fill="white"/>
</svg>
