<svg width="16" height="16" viewBox="0 0 16 16" fill="none" xmlns="http://www.w3.org/2000/svg">
<path d="M14.1 2.8501H2.7C2.1775 2.8501 1.75 3.2776 1.75 3.8001V11.4001C1.75 11.9226 2.1775 12.3501 2.7 12.3501H14.1C14.6225 12.3501 15.05 11.9226 15.05 11.4001V3.8001C15.05 3.2776 14.6225 2.8501 14.1 2.8501ZM13.9575 4.8926L8.685 8.5026C8.685 8.5026 8.6375 8.5026 8.59 8.5501C8.5425 8.5501 8.5425 8.5976 8.495 8.5976C8.4475 8.5976 8.4475 8.5976 8.4 8.5976C8.3525 8.5976 8.3525 8.5976 8.305 8.5976C8.2575 8.5976 8.2575 8.5501 8.21 8.5501C8.1625 8.5501 8.1625 8.5501 8.115 8.5026L2.8425 4.8926C2.605 4.7501 2.5575 4.4176 2.7 4.2276C2.8425 3.9901 3.175 3.9426 3.365 4.0851L8.4 7.5051L13.435 4.0851C13.625 3.9426 13.9575 3.9901 14.1 4.2276C14.2425 4.4176 14.195 4.7501 13.9575 4.8926Z" fill="white"/>
</svg>
