<svg width="19" height="19" viewBox="0 0 19 19" fill="none" xmlns="http://www.w3.org/2000/svg">
<path d="M16.625 3.5625H2.375C1.72188 3.5625 1.1875 4.09688 1.1875 4.75V14.25C1.1875 14.9031 1.72188 15.4375 2.375 15.4375H16.625C17.2781 15.4375 17.8125 14.9031 17.8125 14.25V4.75C17.8125 4.09688 17.2781 3.5625 16.625 3.5625ZM16.4469 6.11563L9.85625 10.6281C9.85625 10.6281 9.79688 10.6281 9.7375 10.6875C9.67812 10.6875 9.67813 10.7469 9.61875 10.7469C9.55938 10.7469 9.55937 10.7469 9.5 10.7469C9.44063 10.7469 9.44063 10.7469 9.38125 10.7469C9.32188 10.7469 9.32188 10.6875 9.2625 10.6875C9.20312 10.6875 9.20312 10.6875 9.14375 10.6281L2.55313 6.11563C2.25625 5.9375 2.19687 5.52187 2.375 5.28437C2.55313 4.9875 2.96875 4.92813 3.20625 5.10625L9.5 9.38125L15.7937 5.10625C16.0312 4.92813 16.4469 4.9875 16.625 5.28437C16.8031 5.52187 16.7438 5.9375 16.4469 6.11563Z" fill="white"/>
</svg>
