<svg width="265" height="42" viewBox="0 0 265 42" fill="none" xmlns="http://www.w3.org/2000/svg">
<path d="M49.8631 5.34545L46.3691 0L46.19 0.298861L46.359 0.0134158H3.17645L0.0584252 5.34789L0 5.44914L0.0584252 5.55039L21.1836 42H27.8045L27.9315 41.7951L38.7868 23.38L35.3081 18.3895L28.7291 18.0333L24.5594 24.6267L16.2328 10.8788H34.2374L37.0722 16.0388H43.1304L49.8631 5.34545ZM3.41904 0.418417H45.6452L40.0315 10.4055H34.9232L37.3707 5.1454H0.65917L3.41904 0.418417ZM27.8045 29.966L27.7968 29.9831L27.5568 29.5842L27.5441 29.5647L27.8045 29.966ZM27.7867 30.7784L28.0509 30.3539L28.0724 30.3869L28.978 28.8852L29.0263 28.8096L29.0529 28.7645L35.1912 18.9628L38.2864 23.4031L27.8146 41.1632L10.6686 10.8788H15.7489L27.7867 30.7784ZM42.3278 15.635H37.3173L34.7467 10.8775H39.827" fill="#355FAA"/>
<path fill-rule="evenodd" clip-rule="evenodd" d="M216.139 10.4657C216.053 10.6696 216.011 10.8882 216.017 11.1081C216.012 11.3276 216.054 11.5457 216.141 11.749C216.227 11.9523 216.356 12.1365 216.519 12.2905C216.682 12.4444 216.876 12.5648 217.089 12.6442C217.302 12.7236 217.529 12.7605 217.758 12.7525C217.991 12.7647 218.224 12.7311 218.443 12.6539C218.662 12.5766 218.863 12.4573 219.032 12.3032C219.201 12.149 219.336 11.9634 219.429 11.7575C219.521 11.5516 219.568 11.3298 219.568 11.1057C219.568 10.8815 219.521 10.6597 219.429 10.4539C219.336 10.248 219.201 10.0623 219.032 9.90818C218.863 9.75406 218.662 9.63473 218.443 9.55747C218.224 9.48022 217.991 9.44665 217.758 9.45884C217.529 9.4508 217.301 9.4878 217.087 9.56753C216.874 9.64727 216.68 9.76807 216.517 9.92253C216.354 10.077 216.225 10.2618 216.139 10.4657ZM222.285 14.2383H218.255V30.9651H222.285V14.2383ZM221.354 10.1805C221.165 10.4556 221.065 10.7785 221.068 11.1081H221.071C221.066 11.3259 221.106 11.5425 221.19 11.7449C221.274 11.9472 221.4 12.1311 221.56 12.2853C221.721 12.4395 221.912 12.5608 222.122 12.642C222.333 12.7231 222.558 12.7624 222.785 12.7574C223.128 12.7598 223.464 12.6641 223.751 12.4824C224.037 12.3008 224.261 12.0415 224.393 11.7374C224.526 11.4333 224.561 11.0982 224.495 10.7748C224.428 10.4514 224.263 10.1542 224.021 9.92112C223.778 9.68803 223.469 9.52955 223.132 9.46583C222.795 9.40211 222.446 9.43604 222.13 9.5633C221.813 9.69056 221.543 9.9054 221.354 10.1805ZM102.697 27.3762H110.783L112.327 30.9602H116.556L108.769 14.2334H104.787L97.1982 30.5864L91.5825 22.315L97.2787 14.2383H93.0253L88.4466 21.0012H85.561V14.2383H81.5552V30.9639H85.5585V24.2253H88.345L92.8767 30.9651H97.4553L97.452 30.9602H101.155L102.697 27.3762ZM106.751 18.0321L109.513 24.4364H103.99L106.751 18.0321ZM63.3271 30.9651C67.7292 30.9651 70.0928 29.1731 70.0928 26.2576C70.126 25.3244 69.8149 24.41 69.2145 23.6757C68.614 22.9413 67.7627 22.4344 66.8109 22.2443C67.555 21.9345 68.1863 21.4191 68.6246 20.7638C69.0629 20.1084 69.2884 19.3427 69.2723 18.5639C69.2723 15.7912 66.8833 14.2383 62.8534 14.2383H54.7427V30.9651H63.3271ZM62.5029 21.1683H58.7472V17.1062H62.5029C64.2492 17.1062 65.17 17.8235 65.17 19.1373C65.17 20.4742 64.2441 21.1683 62.5029 21.1683ZM63.1722 23.874C65.0392 23.874 66.0095 24.5388 66.0095 25.9478L66.0082 25.9466C66.0082 27.4043 65.043 28.0984 63.1722 28.1033H58.7447V23.874H63.1722ZM77.2725 14.2383H73.2718V30.9651H77.2725V14.2383ZM134.836 14.2383V30.9651H130.806V24.107H122.894V30.9639H118.864V14.2383H122.894V20.8341H130.806V14.2383H134.836ZM154.534 27.4775L161.947 14.2395V14.237H157.99L153.213 23.2226L148.586 14.237H144.282L151.153 26.5199L151.003 26.7114C150.772 27.1416 150.423 27.5028 149.993 27.7557C149.563 28.0086 149.07 28.1436 148.566 28.146C147.972 28.1256 147.386 28.0212 146.824 27.8361L145.854 30.7748C146.752 31.1422 147.716 31.337 148.691 31.3481C151.027 31.3481 153.091 30.0587 154.534 27.4775ZM170.6 24.2253H167.814V30.9639H163.808V14.2383H167.814V21.0012H170.699L175.278 14.2383H179.531L173.835 22.315L179.708 30.9651H175.129L170.6 24.2253ZM189.13 26.354C193.781 26.354 196.694 24.035 196.694 20.3083C196.694 16.556 193.784 14.2383 189.133 14.2383H181.594V30.9651H185.624V26.354H189.13ZM188.906 17.3929C191.368 17.3929 192.613 18.4688 192.613 20.3083H192.614C192.614 22.1223 191.371 23.1982 188.91 23.1994H185.623V17.3929H188.906ZM210.276 27.3762H202.191L200.649 30.9602H196.518L204.281 14.2334H208.263L216.048 30.9602H211.819L210.276 27.3762ZM209.006 24.4364L206.244 18.0321L203.481 24.4364H209.006ZM242.486 14.2383V30.9651H238.456V24.107H230.544V30.9639H226.514V14.2383H230.544V20.8341H238.456V14.2383H242.486ZM250.541 27.3762H258.628L260.168 30.9602H264.398L256.611 14.2334H252.632L244.869 30.9602H248.999L250.541 27.3762ZM254.595 18.0321L257.358 24.4364H251.834L254.595 18.0321Z" fill="#3C3C3B"/>
</svg>
