<svg width="21" height="21" viewBox="0 0 21 21" fill="none" xmlns="http://www.w3.org/2000/svg">
<path d="M14.8375 13.75C16.0735 12.2799 16.7508 10.4207 16.75 8.5C16.75 6.86831 16.2661 5.27325 15.3596 3.91655C14.4531 2.55984 13.1646 1.50242 11.6571 0.877998C10.1497 0.253575 8.49085 0.0901971 6.89051 0.408525C5.29017 0.726853 3.82016 1.51259 2.66637 2.66637C1.51259 3.82016 0.726853 5.29017 0.408525 6.89051C0.0901971 8.49085 0.253575 10.1497 0.877998 11.6571C1.50242 13.1646 2.55984 14.4531 3.91655 15.3596C5.27325 16.2661 6.86831 16.75 8.5 16.75C10.4207 16.7508 12.2799 16.0735 13.75 14.8375L19.4425 20.5L20.5 19.4425L14.8375 13.75ZM8.5 15.25C7.16498 15.25 5.85994 14.8541 4.7499 14.1124C3.63987 13.3707 2.77471 12.3165 2.26382 11.0831C1.75293 9.84972 1.61925 8.49252 1.8797 7.18314C2.14015 5.87377 2.78303 4.67104 3.72703 3.72703C4.67104 2.78303 5.87377 2.14015 7.18314 1.8797C8.49252 1.61925 9.84972 1.75293 11.0831 2.26382C12.3165 2.77471 13.3707 3.63987 14.1124 4.7499C14.8541 5.85994 15.25 7.16498 15.25 8.5C15.25 10.2902 14.5388 12.0071 13.273 13.273C12.0071 14.5388 10.2902 15.25 8.5 15.25Z" fill="#161616"/>
</svg>
