<svg width="24" height="24" viewBox="0 0 24 24" fill="none" xmlns="http://www.w3.org/2000/svg">
<path d="M16.8375 15.75C18.0735 14.2799 18.7508 12.4207 18.75 10.5C18.75 8.86831 18.2661 7.27325 17.3596 5.91655C16.4531 4.55984 15.1646 3.50242 13.6571 2.878C12.1497 2.25357 10.4909 2.0902 8.89051 2.40853C7.29017 2.72685 5.82016 3.51259 4.66637 4.66637C3.51259 5.82016 2.72685 7.29017 2.40853 8.89051C2.0902 10.4909 2.25357 12.1497 2.878 13.6571C3.50242 15.1646 4.55984 16.4531 5.91655 17.3596C7.27325 18.2661 8.86831 18.75 10.5 18.75C12.4207 18.7508 14.2799 18.0735 15.75 16.8375L21.4425 22.5L22.5 21.4425L16.8375 15.75ZM10.5 17.25C9.16498 17.25 7.85994 16.8541 6.7499 16.1124C5.63987 15.3707 4.77471 14.3165 4.26382 13.0831C3.75293 11.8497 3.61925 10.4925 3.8797 9.18314C4.14015 7.87377 4.78303 6.67104 5.72703 5.72703C6.67104 4.78303 7.87377 4.14015 9.18314 3.8797C10.4925 3.61925 11.8497 3.75293 13.0831 4.26382C14.3165 4.77471 15.3707 5.63987 16.1124 6.7499C16.8541 7.85994 17.25 9.16498 17.25 10.5C17.25 12.2902 16.5388 14.0071 15.273 15.273C14.0071 16.5388 12.2902 17.25 10.5 17.25Z" fill="#161616"/>
</svg>
